<?xml version="1.0" encoding="UTF-8"?>
<!-- Generator: https://ezgif.com/jpg-to-svg -->
<svg version="1.1" xmlns="http://www.w3.org/2000/svg" width="512" height="512">
<path d="M0 0 C1.27 -0.01 2.53 -0.02 3.84 -0.03 C5.23 -0.03 6.62 -0.04 8.01 -0.04 C9.44 -0.05 10.86 -0.05 12.29 -0.06 C15.29 -0.07 18.3 -0.08 21.3 -0.08 C25.12 -0.08 28.94 -0.11 32.76 -0.14 C35.71 -0.16 38.67 -0.16 41.62 -0.16 C43.03 -0.17 44.44 -0.17 45.84 -0.19 C63.1 -0.34 77.88 4.01 90.46 16.33 C101.14 28.31 104.5 43.54 108.71 58.64 C110.16 63.82 111.64 69 113.12 74.17 C113.4 75.13 113.67 76.1 113.96 77.09 C114.63 79.45 115.31 81.81 115.98 84.16 C117.1 84.16 117.1 84.16 118.25 84.16 C162.68 84.22 207.1 84.3 251.53 84.39 C256.86 84.4 262.2 84.41 267.53 84.42 C268.59 84.43 269.66 84.43 270.75 84.43 C287.94 84.47 305.14 84.49 322.33 84.51 C339.98 84.53 357.62 84.57 375.26 84.61 C386.15 84.64 397.04 84.65 407.92 84.66 C415.39 84.67 422.86 84.68 430.32 84.71 C434.63 84.72 438.94 84.73 443.24 84.73 C447.19 84.72 451.14 84.73 455.08 84.75 C456.51 84.76 457.93 84.76 459.36 84.75 C471.89 84.71 481.82 86.07 490.98 95.16 C498.69 104.65 500.09 114.21 498.98 126.16 C498.03 131.31 496.57 136.26 495.01 141.25 C494.58 142.68 494.15 144.12 493.73 145.55 C492.81 148.62 491.89 151.68 490.95 154.74 C489.45 159.61 487.99 164.49 486.53 169.37 C484.98 174.54 483.43 179.71 481.87 184.87 C477.94 197.89 474.11 210.93 470.32 223.99 C469.77 225.87 469.22 227.76 468.67 229.64 C466.54 236.97 464.41 244.31 462.29 251.64 C461.04 255.92 459.8 260.21 458.55 264.49 C458.09 266.06 457.63 267.63 457.18 269.2 C451.95 287.29 446.05 303.47 429.2 313.88 C415.31 321.34 401.66 321.6 386.3 321.57 C384.23 321.57 382.17 321.58 380.1 321.59 C374.53 321.6 368.96 321.6 363.38 321.6 C358.71 321.59 354.04 321.6 349.37 321.61 C338.35 321.62 327.33 321.62 316.3 321.61 C304.97 321.6 293.63 321.61 282.29 321.64 C272.52 321.66 262.76 321.67 252.99 321.66 C247.17 321.66 241.36 321.66 235.54 321.68 C230.06 321.69 224.59 321.69 219.11 321.67 C217.11 321.66 215.11 321.67 213.12 321.68 C193.98 321.77 176.69 319.59 162.11 305.85 C152.47 295.56 148.28 282.85 144.54 269.53 C144.22 268.39 143.9 267.24 143.56 266.07 C142.67 262.91 141.77 259.75 140.88 256.59 C139.91 253.15 138.93 249.71 137.96 246.27 C136.68 241.77 135.4 237.28 134.13 232.78 C130.76 220.9 127.38 209.01 123.98 197.13 C123.73 196.23 123.47 195.33 123.2 194.41 C121.35 187.92 119.5 181.44 117.64 174.95 C117.38 174.03 117.11 173.1 116.84 172.15 C114.41 163.64 111.98 155.13 109.55 146.62 C106.77 136.92 104 127.22 101.23 117.51 C98.76 108.86 96.29 100.2 93.81 91.54 C92.51 87.02 91.22 82.49 89.93 77.96 C88.73 73.75 87.53 69.54 86.32 65.33 C85.88 63.8 85.44 62.27 85.01 60.74 C80.1 41.19 80.1 41.19 66.54 27.35 C58.22 22.86 50.45 22.88 41.16 22.89 C39.82 22.88 38.48 22.87 37.13 22.86 C31.46 22.81 25.79 22.79 20.11 22.78 C16.63 22.78 13.14 22.75 9.66 22.71 C7.7 22.7 5.74 22.71 3.78 22.72 C-7.34 22.59 -7.34 22.59 -12.02 18.16 C-13.88 14.45 -13.6 10.21 -13.02 6.16 C-8.99 0.97 -6.34 0.04 0 0 Z M121.98 107.16 C127.2 126.7 127.2 126.7 132.66 146.18 C133.12 147.79 133.12 147.79 133.6 149.44 C134.58 152.88 135.58 156.32 136.57 159.77 C137.28 162.23 137.98 164.7 138.69 167.17 C140.16 172.3 141.64 177.42 143.11 182.55 C144.61 187.74 146.1 192.93 147.59 198.12 C147.77 198.76 147.95 199.39 148.14 200.05 C149.06 203.25 149.98 206.45 150.9 209.64 C152.68 215.84 154.46 222.03 156.24 228.22 C159.14 238.26 162.03 248.29 164.81 258.36 C165.41 260.5 166.01 262.64 166.61 264.78 C167.12 266.61 167.61 268.45 168.1 270.29 C170.85 280.09 175.35 288.4 183.98 294.16 C191.87 298.53 199.42 299.31 208.38 299.29 C209.61 299.3 209.61 299.3 210.86 299.3 C213.59 299.31 216.32 299.31 219.05 299.31 C221.02 299.31 222.98 299.31 224.94 299.32 C230.27 299.33 235.59 299.33 240.92 299.33 C244.25 299.33 247.58 299.33 250.91 299.33 C262.53 299.34 274.16 299.35 285.78 299.35 C296.6 299.35 307.42 299.36 318.25 299.37 C327.55 299.39 336.85 299.39 346.15 299.39 C351.71 299.39 357.26 299.39 362.81 299.4 C368.03 299.41 373.25 299.41 378.48 299.41 C380.39 299.4 382.3 299.41 384.21 299.41 C405.55 299.65 405.55 299.65 423.8 289.53 C431.01 281.75 433.35 271.1 436.19 261.17 C436.6 259.77 437 258.37 437.41 256.98 C438.28 253.98 439.14 250.98 440 247.99 C441.37 243.23 442.75 238.48 444.12 233.73 C444.6 232.1 445.07 230.46 445.55 228.82 C445.78 228 446.02 227.18 446.27 226.34 C447 223.81 447.73 221.28 448.46 218.75 C453.74 200.51 459.09 182.3 464.44 164.09 C466.32 157.69 468.19 151.3 470.07 144.9 C470.69 142.79 471.31 140.67 471.94 138.55 C472.31 137.27 472.69 135.98 473.07 134.7 C473.39 133.6 473.71 132.5 474.05 131.37 C474.51 129.78 474.51 129.78 474.98 128.16 C475.52 126.32 475.52 126.32 476.08 124.44 C477.45 119.46 477.7 116.59 475.36 111.91 C472.09 108.13 468.95 107.33 464.02 106.91 C462.45 106.91 462.45 106.91 460.85 106.92 C459.03 106.91 459.03 106.91 457.18 106.9 C455.84 106.91 454.5 106.91 453.16 106.92 C451.73 106.92 450.31 106.92 448.88 106.92 C444.96 106.91 441.04 106.92 437.12 106.93 C432.89 106.94 428.66 106.93 424.43 106.93 C417.1 106.93 409.78 106.94 402.45 106.95 C391.86 106.97 381.27 106.97 370.68 106.97 C353.5 106.98 336.31 106.99 319.13 107.01 C302.44 107.03 285.74 107.04 269.05 107.05 C268.02 107.05 266.99 107.05 265.93 107.05 C260.77 107.06 255.61 107.06 250.45 107.06 C207.63 107.08 164.8 107.12 121.98 107.16 Z " fill="#000000" transform="translate(13.019287109375,84.8388671875)"/>
<path d="M0 0 C9.57 7.59 16.07 17.78 17.54 30.01 C18.63 43.05 14.86 54.33 6.91 64.64 C-0.16 72.45 -10.56 77.84 -21.11 78.45 C-22.68 78.47 -24.26 78.47 -25.84 78.45 C-26.67 78.44 -27.49 78.43 -28.35 78.43 C-38.8 78.15 -46.62 74.9 -54.46 68.01 C-55.07 67.51 -55.67 67.01 -56.3 66.49 C-62.78 60.67 -67.87 51.79 -68.64 42.99 C-69.07 28.06 -67.62 16.73 -57.46 5.01 C-41.32 -10.14 -18.57 -12.76 0 0 Z M-39.84 19.2 C-44.31 24 -46.66 28.38 -46.96 35.01 C-46.68 40.96 -44.89 45.42 -40.81 49.77 C-35.24 54.81 -30.54 56.52 -23.02 56.32 C-17.89 55.71 -14.18 53.87 -10.67 50.07 C-5.45 43.34 -4.51 37.48 -5.46 29.01 C-7.8 22.97 -11.94 19.24 -17.34 15.82 C-25.1 12.85 -33.17 14.22 -39.84 19.2 Z " fill="#000000" transform="translate(260.4609375,433.98828125)"/>
<path d="M0 0 C8.04 7.21 13.32 17.93 14.09 28.67 C14.36 42.26 11.23 53.36 1.85 63.48 C-8.53 73.42 -19.69 75.83 -33.59 75.6 C-45 75.13 -54.6 69.26 -62.4 61.2 C-71.34 50.69 -72.88 38.57 -72.15 25.32 C-70.38 14.32 -63.9 4.15 -55.15 -2.68 C-36.82 -13.93 -17.14 -13.34 0 0 Z M-45.46 19.7 C-49.57 24.84 -50.82 29.76 -50.15 36.32 C-47.88 44.11 -43.71 48.61 -36.84 52.7 C-30.17 54.25 -23.99 54.11 -17.97 50.66 C-12.93 46.97 -9.44 42.51 -8.15 36.32 C-7.64 30.8 -8.26 26.08 -11.15 21.32 C-15.42 16.75 -19.36 12.66 -25.82 12.09 C-34.68 11.87 -39.33 13.06 -45.46 19.7 Z " fill="#000000" transform="translate(413.15234375,436.67578125)"/>
</svg>
